<svg viewBox="0 0 220 156" fill="none" xmlns="http://www.w3.org/2000/svg">
<path fill-rule="evenodd" clip-rule="evenodd" d="M46.6119 3.41588C42.5951 3.75774 39.2173 6.50456 38.0149 10.3523L20 68H200L181.985 10.3523C180.783 6.50457 177.405 3.75774 173.388 3.41588C160.342 2.30553 130.754 0 110 0C89.246 0 59.6581 2.30553 46.6119 3.41588ZM54.0168 12.8178C50.1979 13.1213 46.9118 15.6065 45.548 19.1865L30 60H190L174.452 19.1865C173.088 15.6065 169.802 13.1213 165.983 12.8178C154.209 11.882 128.259 10 110 10C91.7414 10 65.7909 11.882 54.0168 12.8178Z" fill="#E0D4D4"/>
<path d="M20 68H200L217.071 85.0711C218.946 86.9464 220 89.49 220 92.1421V112.741C220 114.228 219.668 115.697 219.029 117.04L212.715 130.299C211.056 133.782 207.543 136 203.686 136H16.314C12.4569 136 8.94369 133.782 7.2854 130.299L0.971395 117.04C0.331859 115.697 0 114.228 0 112.741V92.1421C0 89.49 1.05357 86.9464 2.92893 85.0711L20 68Z" fill="#E0D4D4"/>
<path d="M50 136H170L160 146H60L50 136Z" fill="#E0D4D4"/>
<path d="M165 126H205V146C205 151.523 200.523 156 195 156H175C169.477 156 165 151.523 165 146V126Z" fill="#E0D4D4"/>
<path d="M15 126H55V146C55 151.523 50.5228 156 45 156H25C19.4772 156 15 151.523 15 146V126Z" fill="#E0D4D4"/>
<path d="M112 56C112 56 127.237 54 137 54C146.763 54 162 56 162 56V57C142.474 57 131.526 57 112 57V56Z" fill="#E0D4D4"/>
<path d="M41 56C41 56 56.2369 54 66 54C75.7631 54 91 56 91 56V57C71.4738 57 60.5262 57 41 57V56Z" fill="#E0D4D4"/>
<path d="M137.518 55L168.427 63.2822L167.91 65.214L137 56.9318L137.518 55Z" fill="#E0D4D4"/>
<rect x="66.5176" y="55" width="32" height="2" transform="rotate(15 66.5176 55)" fill="#E0D4D4"/>
<rect x="95" y="12" width="30" height="8" rx="2" fill="#E0D4D4"/>
<path d="M196 49C196 47.8954 196.895 47 198 47H212C213.105 47 214 47.8954 214 49V57.2099C214 58.229 213.234 59.0851 212.221 59.1977L198.221 60.7532C197.036 60.8849 196 59.9575 196 58.7655V49Z" fill="#E0D4D4"/>
<path d="M24 49C24 47.8954 23.1046 47 22 47H8C6.89543 47 6 47.8954 6 49V57.2099C6 58.229 6.76627 59.0851 7.77914 59.1977L21.7791 60.7532C22.9639 60.8849 24 59.9575 24 58.7655V49Z" fill="#E0D4D4"/>
</svg>
