<svg width="600" height="469" viewBox="0 0 600 469" fill="none" xmlns="http://www.w3.org/2000/svg">
<g clip-path="url(#clip0)">
<path opacity="0.1" d="M210.47 459.916C268.273 459.916 315.132 451.048 315.132 440.109C315.132 429.171 268.273 420.303 210.47 420.303C152.667 420.303 105.809 429.171 105.809 440.109C105.809 451.048 152.667 459.916 210.47 459.916Z" fill="#FF475F"/>
<path opacity="0.1" d="M348.604 66.1413C310.139 64.8113 273.504 52.4025 238.522 38.83C203.54 25.2575 168.89 10.2244 131.346 3.03443C107.199 -1.59068 79.5803 -2.24971 60.1279 10.6697C41.4005 23.1379 35.3503 44.601 32.0993 64.5323C29.6506 79.5298 28.2124 95.3169 34.9164 109.358C39.576 119.107 47.8371 127.301 53.5546 136.64C73.4468 169.129 59.385 209.193 37.8346 240.916C27.731 255.794 15.9929 270.008 8.18938 285.831C0.385827 301.654 -3.22176 319.845 3.6071 336.03C10.3706 352.061 26.4947 364.078 43.9621 372.538C79.4377 389.727 121.225 394.643 162.002 397.433C252.239 403.596 342.952 400.93 433.427 398.252C466.911 397.267 500.538 396.263 533.476 391.092C551.77 388.218 570.652 383.659 583.935 372.651C600.79 358.681 604.968 335.027 593.67 317.512C574.723 288.123 522.35 280.826 509.091 249.293C501.804 231.933 509.287 212.601 519.884 196.505C542.611 161.968 580.702 131.671 582.705 92.1998C584.083 65.0904 565.772 37.9394 537.458 25.1091C507.783 11.6612 466.626 13.3533 444.743 35.612C422.188 58.506 382.57 67.3228 348.604 66.1413Z" fill="#FF475F"/>
<path d="M318.038 214.774L299.834 202.513L309.016 188.857L260.935 185.028L243.658 198.375L222.03 186.263L203.992 188.43L203.778 183.68C203.555 178.729 203.057 173.793 202.286 168.897C202.364 167.412 202.417 165.708 202.411 163.856C202.411 156.048 201.353 145.7 196.706 138.801L197.775 129.194L189.098 118.953C190.492 116.18 192.08 113.509 193.853 110.961C194.15 110.534 194.447 110.118 194.768 109.714C206.031 108.901 214.916 99.6506 214.916 88.3401C214.916 87.8176 214.916 87.2952 214.856 86.7786C214.856 86.5708 214.815 86.3571 214.791 86.1493C215.891 86.743 217.002 87.3367 218.113 87.9305C218.321 88.2273 218.559 88.5242 218.821 88.8745L218.874 88.9398L219.207 89.3494L219.314 89.4741C219.433 89.6166 219.558 89.7532 219.682 89.8957L219.766 89.9907C220.081 90.341 220.413 90.6972 220.77 91.0475C220.812 91.082 220.852 91.1197 220.889 91.1603L221.335 91.5759L221.459 91.6887C221.84 92.0271 222.244 92.3537 222.648 92.6624L222.779 92.7574L223.29 93.1077L223.456 93.2146C223.652 93.3333 223.855 93.458 224.051 93.5708L224.122 93.6124C224.354 93.7371 224.592 93.8558 224.829 93.9686L224.948 94.0161C225.15 94.1032 225.348 94.1863 225.542 94.2655L225.727 94.3308C225.935 94.402 226.137 94.4673 226.351 94.5267L226.481 94.5623C226.743 94.6277 227.005 94.6811 227.272 94.7226H227.302C227.553 94.7633 227.808 94.7891 228.062 94.7998H228.235C228.462 94.8117 228.691 94.8117 228.918 94.7998H229.067C229.352 94.7834 229.636 94.7497 229.917 94.6989C231.246 94.5242 232.523 94.0667 233.661 93.3571C233.951 93.1636 234.207 92.9251 234.422 92.6506C235.61 91.095 234.303 89.391 234.303 89.391C233.839 88.2867 230.832 87.5089 230.832 87.5089C230.832 87.5089 221.323 83.5428 221.323 80.3842C221.323 77.2256 218.945 60.8388 194.405 57.0925C194.405 57.0925 178.442 56.1959 173.955 64.7337L173.859 65.7311C172.54 66.5564 171.447 68.2129 170.145 68.6997C169.583 68.8204 169.04 69.0203 168.534 69.2935V69.1807C168.384 69.3119 168.261 69.4713 168.172 69.6497C167.892 70.2054 167.725 70.8106 167.678 71.4309C167.545 72.1886 167.281 72.9176 166.9 73.5861C166.794 73.776 166.674 73.9585 166.543 74.1323L166.442 74.2926C167.132 74.3463 167.825 74.2344 168.463 73.9661C168.362 74.7789 168.163 75.5765 167.869 76.341C168.246 76.3532 168.62 76.2567 168.944 76.063C169.269 75.8694 169.531 75.5866 169.699 75.2485V75.201L169.776 75.0941C169.926 74.8193 170.049 74.5311 170.145 74.2332L170.08 74.3045C170.198 73.9186 170.305 73.5267 170.436 73.1467C170.496 72.9327 170.595 72.7315 170.727 72.553C170.886 72.3933 171.08 72.273 171.294 72.2018C171.507 72.1306 171.735 72.1106 171.958 72.1433L171.714 77.2909H171.821C171.678 77.6654 171.503 78.0269 171.298 78.3715C170.454 79.7371 168.921 80.6692 168.356 82.1654C168.113 82.887 168.02 83.6508 168.083 84.4097C168.083 84.855 168.136 85.3062 168.172 85.7515V85.7159C168.255 86.9033 168.279 88.0314 167.637 88.9873C167.197 89.6404 166.49 90.1332 166.246 90.8753C166.179 91.0821 166.149 91.2992 166.157 91.5165C166.205 92.1672 166.341 92.8083 166.561 93.4224C166.564 93.4107 166.564 93.3985 166.561 93.3868C166.709 93.8385 166.744 94.3197 166.662 94.7879C166.395 95.9754 164.95 96.9669 165.022 98.1009C165.018 98.2501 165.04 98.3988 165.087 98.5403C165.365 99.0942 165.846 99.5196 166.43 99.7277C167.347 100.248 168.399 100.48 169.45 100.393C169.843 100.322 170.224 100.192 170.579 100.007C170.163 100.963 169.735 101.907 169.301 102.803C169.236 102.946 169.164 103.088 169.093 103.231C169.093 103.231 165.42 100.779 163.334 105.778C162.725 106.817 162.289 107.948 162.044 109.126C161.94 109.598 161.792 110.059 161.604 110.504C160.678 112.07 159.292 113.314 157.634 114.066C153.379 116.014 136.191 137.429 135.888 142.975C135.739 145.139 135.373 147.283 134.794 149.375C133.441 154.3 133.093 159.447 133.772 164.509C133.984 166.145 134.336 167.76 134.824 169.336C136.648 174.875 137.867 185.212 137.867 185.212L139.84 203.154C139.767 205.631 139.874 208.109 140.161 210.57C138.146 212.868 130.057 222.444 133.148 225.051C135.525 227.105 139.686 226.767 142.021 226.345C140.054 231.208 136.958 239.662 136.547 245.469C135.953 254.06 137.564 265.442 140.113 269.812C142.663 274.182 151.162 285.391 151.162 285.391C151.162 285.391 150.764 300.768 153.801 306.355C156.838 311.942 158.062 323.532 158.062 323.532C158.062 323.532 160.897 333.316 159.477 336.914C158.056 340.512 162.11 343.505 157.854 345.897C153.599 348.29 148.155 402.218 148.155 402.218C148.155 402.218 145.962 437.562 148.155 439.361C148.272 439.447 148.397 439.52 148.529 439.581V451.455C148.529 451.455 147.008 453.949 153.195 454.454C157.432 454.792 169.444 455.558 176.57 456.003L182.091 456.348C182.091 456.348 195.166 458.948 200.943 456.348C206.72 453.747 216.96 453.807 215.439 446.937C215.237 446.002 214.967 445.084 214.631 444.188C212.96 439.925 210.126 439.438 204.901 438.251C204.598 438.186 204.307 438.126 204.04 438.079C198.536 437.123 196.729 439.682 193.645 436.351C190.964 433.472 182.43 430.248 179.523 429.226C179.595 429.013 179.684 428.805 179.755 428.585C178.932 428.446 178.167 428.073 177.55 427.511L185.425 428.009L190.114 428.3C190.114 428.3 201.228 430.515 206.161 428.3C211.094 426.086 219.771 426.145 218.476 420.309C218.305 419.513 218.077 418.732 217.792 417.969C216.372 414.348 213.959 413.95 209.519 412.947C209.264 412.893 209.026 412.84 208.788 412.798C204.111 411.985 202.578 414.158 199.957 411.332C197.71 408.921 190.62 406.22 188.07 405.299C188.07 403.981 186.287 402.105 185.164 400.223C183.844 398.026 186.281 390.338 186.281 390.338L187.672 358.437C188.201 358.201 188.762 358.041 189.336 357.962C189.336 357.962 195.624 351.965 194.203 345.577C193.914 343.645 193.763 341.694 193.752 339.74C195.82 337.823 198.667 334.991 199.475 333.245C200.795 330.401 199.475 316.621 199.475 316.621V263.928L209.995 264.991L219.54 265.97L222.446 266.267L231.991 267.229L253.928 269.444L273.695 265.703L282.247 264.088L299.834 260.763V217.778L318.038 214.774ZM173.253 72.3333L172.029 72.2027C172.433 72.2205 172.861 72.2977 173.253 72.3333Z" fill="url(#paint0_linear)"/>
<path d="M275.371 242.685C269.428 251.181 248.061 246.68 248.061 246.68L231.503 231.202L229.275 229.106L233.013 221.174C233.013 221.174 234.202 221.5 236.24 222.082C246.944 225.187 280.387 235.542 275.371 242.685Z" fill="#EFB7B9"/>
<path opacity="0.1" d="M236.228 222.082C235.497 224.623 233.494 228.429 231.503 231.202L229.275 229.106L233.013 221.174C233.013 221.174 234.214 221.5 236.228 222.082Z" fill="black"/>
<path d="M179.44 132.632C179.44 132.632 164.178 139.394 164.927 156.001C165.465 166.7 166.632 177.357 168.421 187.919C168.421 187.919 165.301 212.909 178.293 219.351C191.285 225.793 203.308 231.089 203.308 231.089C203.308 231.089 223.635 233.274 226.16 234.176C228.686 235.079 236.579 221.281 235.123 219.131C233.667 216.982 215.011 212.476 212.633 208.89C210.256 205.304 204.759 203.089 204.759 203.089C204.759 203.089 199.083 199.657 198.696 196.558C198.31 193.459 199.808 191.149 200.188 189.79C200.569 188.43 201.531 175.303 201.531 175.303C201.531 175.303 207.938 128.577 179.44 132.632Z" fill="#DCE6F2"/>
<path opacity="0.1" d="M189.514 187.237C189.514 187.237 168.576 190.74 170.603 198.06C170.603 198.06 178.204 190.158 189.514 187.237Z" fill="black"/>
<path opacity="0.1" d="M189.675 190.199C189.675 190.199 178.162 199.586 180.415 200.067C182.667 200.548 189.675 190.199 189.675 190.199Z" fill="black"/>
<path opacity="0.1" d="M195.208 193.471C195.208 193.471 192.123 199.782 194.019 199.355C195.915 198.927 195.208 193.471 195.208 193.471Z" fill="black"/>
<path opacity="0.1" d="M237.001 222.753L235.729 222.391C236.092 221.204 236.193 220.242 235.896 219.796C234.439 217.647 215.795 213.147 213.424 209.555C211.053 205.963 205.549 203.754 205.549 203.754C205.549 203.754 199.873 200.322 199.487 197.223C199.101 194.124 200.598 191.814 200.979 190.455C201.359 189.095 202.322 175.962 202.322 175.962C202.322 175.962 208.711 129.242 180.213 133.297C180.213 133.297 164.95 140.065 165.693 156.672C166.232 167.371 167.401 178.029 169.194 188.59C169.194 188.59 166.074 213.58 179.066 220.022C192.058 226.464 204.081 231.76 204.081 231.76C204.081 231.76 224.401 233.939 226.933 234.847C227.89 235.192 229.619 233.416 231.313 230.976L232.276 231.873L248.834 247.345C248.834 247.345 270.2 251.852 276.144 243.355C281.166 236.207 247.729 225.852 237.001 222.753Z" fill="black"/>
<path d="M170.656 70.3028C170.074 70.4164 169.517 70.6315 169.01 70.9381C168.415 71.4309 168.415 72.274 168.267 73.0102C168.092 74.0343 167.686 75.005 167.078 75.8482C167.754 75.8977 168.433 75.7858 169.057 75.5216C168.956 76.3343 168.756 77.1317 168.463 77.8965C168.833 77.9059 169.198 77.8084 169.515 77.6157C169.831 77.423 170.085 77.1433 170.246 76.81C170.56 76.141 170.809 75.4431 170.989 74.726C171.045 74.5116 171.142 74.31 171.274 74.1323C171.821 73.4852 172.837 73.7761 173.681 73.8592C174.383 73.9184 175.089 73.7888 175.724 73.484C176.36 73.1792 176.902 72.7101 177.295 72.1255C178.192 70.7659 178.246 67.2867 176.106 66.9186C173.871 66.5505 172.481 69.626 170.656 70.3028Z" fill="#965D7B"/>
<g opacity="0.1">
<path opacity="0.1" d="M168.95 71.6684C169.004 71.3774 169.039 71.0746 169.105 70.7837C168.54 71.2765 168.51 72.1137 168.362 72.8558C168.287 73.284 168.17 73.7037 168.011 74.1086C168.479 73.3635 168.798 72.5348 168.95 71.6684Z" fill="black"/>
<path opacity="0.1" d="M169.14 76.5725C169.436 75.8086 169.636 75.0108 169.735 74.1976C169.14 74.4478 168.495 74.5595 167.851 74.5242C167.663 74.9417 167.434 75.3395 167.167 75.7116C167.841 75.7637 168.518 75.6538 169.14 75.391C169.042 76.2042 168.842 77.002 168.546 77.7659C168.916 77.7746 169.281 77.6768 169.597 77.4841C169.913 77.2915 170.167 77.0122 170.329 76.6794C170.477 76.4095 170.597 76.125 170.686 75.8304C170.511 76.0738 170.278 76.2695 170.008 76.3992C169.738 76.5289 169.44 76.5885 169.14 76.5725Z" fill="black"/>
<path opacity="0.1" d="M174.358 72.5352C173.515 72.4521 172.492 72.1612 171.945 72.8083C171.815 72.9874 171.719 73.1886 171.66 73.402C171.607 73.5564 171.559 73.7167 171.518 73.877C172.082 73.4317 172.997 73.6692 173.764 73.7464C174.466 73.8037 175.171 73.6733 175.806 73.3686C176.441 73.0639 176.983 72.596 177.378 72.0127C177.558 71.7244 177.692 71.41 177.776 71.0806C177.369 71.5838 176.844 71.9796 176.249 72.2332C175.653 72.4868 175.004 72.5905 174.358 72.5352Z" fill="black"/>
</g>
<path d="M188.545 119.338L197.609 130.227L196.426 141.217L185.473 124.088L188.545 119.338Z" fill="#DCE6F2"/>
<path opacity="0.1" d="M197.603 130.227L196.492 140.564L196.42 141.217L186.536 125.757L185.473 124.088L185.782 123.607L188.539 119.338L189.152 120.075L197.603 130.227Z" fill="black"/>
<path d="M202.31 104.596C199.243 105.475 196.313 108.491 193.764 112.154C192.04 114.682 190.499 117.329 189.152 120.075C188.314 121.749 187.577 123.358 186.964 124.759L186.536 125.757C185.502 128.197 184.926 129.83 184.926 129.83C184.926 129.83 161.45 112.196 165.164 111.008C166.412 110.611 168.053 107.939 169.675 104.573L169.877 104.145C170.906 101.984 171.916 99.5734 172.813 97.3053C174.65 92.6446 176.011 88.5954 176.011 88.5954C176.011 88.5954 211.671 101.925 202.31 104.596Z" fill="#EFB7B9"/>
<path d="M216.354 87.6039C216.354 87.6039 221.774 97.4003 229.055 96.0645C236.335 94.7286 233.34 90.8041 233.34 90.8041L216.354 87.6039Z" fill="#444053"/>
<path d="M205.852 426.709C201.05 428.9 190.192 426.709 190.192 426.709L185.615 426.424C179.672 426.044 169.723 425.403 166.204 425.118C161.069 424.696 162.329 422.595 162.329 422.595V409.895L187.244 403.589C187.244 403.589 197.092 406.956 199.79 409.895C202.352 412.697 203.849 410.542 208.42 411.349C208.646 411.391 208.883 411.438 209.133 411.498C213.472 412.489 215.825 412.881 217.216 416.473C217.495 417.228 217.72 418.002 217.887 418.789C219.171 424.572 210.648 424.53 205.852 426.709Z" fill="#A36468"/>
<path opacity="0.1" d="M217.216 416.473C216.323 417.031 215.385 417.511 214.411 417.91C211.142 419.4 208.033 421.217 204.729 422.624C201.424 424.031 197.864 425.035 194.287 424.768C192.414 424.631 190.501 424.174 188.712 424.708C187.605 425.135 186.563 425.712 185.615 426.424C179.672 426.044 169.723 425.403 166.204 425.118C161.069 424.696 162.329 422.595 162.329 422.595V421.11C162.514 421.11 162.722 421.057 162.959 421.039C164.189 421.019 165.414 421.202 166.585 421.579C169.164 422.28 171.732 422.969 174.311 423.657C174.523 422.858 174.896 422.109 175.407 421.458C175.918 420.807 176.556 420.266 177.283 419.869C178.755 419.089 180.407 418.71 182.073 418.771C186.073 418.824 189.859 420.718 193.853 420.908C194.969 421.011 196.093 420.823 197.116 420.362C197.662 420.089 198.144 419.691 198.679 419.388C199.535 418.975 200.439 418.67 201.371 418.48C203.99 417.829 206.562 417 209.068 415.998C209.781 415.719 210.613 415.215 210.518 414.455C210.393 413.445 208.806 413.327 208.39 412.4C208.317 412.233 208.283 412.052 208.291 411.869C208.299 411.687 208.349 411.509 208.438 411.349C208.663 411.391 208.901 411.438 209.151 411.498C213.472 412.489 215.825 412.881 217.216 416.473Z" fill="black"/>
<path d="M200.777 454.495C195.13 457.072 182.352 454.495 182.352 454.495L176.974 454.181C170.008 453.735 158.276 452.993 154.134 452.643C148.089 452.144 149.575 449.674 149.575 449.674V434.707L178.893 427.285C178.893 427.285 190.483 431.245 193.656 434.707C196.67 438.002 198.411 435.466 203.814 436.416C204.081 436.464 204.36 436.523 204.652 436.589C209.757 437.776 212.526 438.221 214.161 442.449C214.492 443.336 214.756 444.247 214.951 445.174C216.425 451.978 206.423 451.925 200.777 454.495Z" fill="#A36468"/>
<path opacity="0.1" d="M214.149 442.449C213.099 443.104 211.995 443.67 210.85 444.141C207.005 445.892 203.344 448.03 199.457 449.686C195.57 451.343 191.38 452.518 187.166 452.209C184.967 452.049 182.715 451.497 180.629 452.138C179.322 452.647 178.091 453.334 176.974 454.181C170.008 453.735 158.276 452.993 154.134 452.643C148.089 452.144 149.575 449.674 149.575 449.674V447.929C149.821 447.889 150.069 447.861 150.318 447.846C151.766 447.819 153.208 448.034 154.585 448.481L163.672 450.927C163.926 449.984 164.369 449.101 164.975 448.335C165.581 447.568 166.337 446.933 167.197 446.468C168.929 445.546 170.875 445.099 172.837 445.174C177.544 445.239 181.996 447.466 186.697 447.691C188.006 447.811 189.324 447.592 190.524 447.056C191.172 446.729 191.713 446.26 192.367 445.91C193.372 445.418 194.437 445.059 195.535 444.841C198.6 444.069 201.61 443.093 204.545 441.92C205.383 441.588 206.363 440.994 206.25 440.103C206.102 438.916 204.236 438.774 203.742 437.681C203.659 437.484 203.621 437.271 203.632 437.057C203.642 436.843 203.7 436.634 203.802 436.446C204.069 436.494 204.348 436.553 204.64 436.618C209.745 437.758 212.515 438.221 214.149 442.449Z" fill="black"/>
<path d="M187.998 351.787L186.412 389.091C186.412 389.091 184.034 396.708 185.324 398.887C186.614 401.066 188.789 403.239 187.998 404.528C187.208 405.816 177.699 419.745 174.626 414.401C171.553 409.058 168.522 385.902 168.522 385.902L171.357 357.303L187.998 351.787Z" fill="#444053"/>
<path d="M194.881 258.846L199.291 264.735V315.962C199.291 315.962 200.58 329.618 199.291 332.438C198.001 335.258 191.463 340.898 191.463 340.898L185.966 312.696L187.154 282.862L194.881 258.846Z" fill="#444053"/>
<path opacity="0.1" d="M187.998 351.787L186.412 389.091C186.412 389.091 184.034 396.708 185.324 398.887C186.614 401.066 188.789 403.239 187.998 404.528C187.208 405.816 177.699 419.745 174.626 414.401C171.553 409.058 168.522 385.902 168.522 385.902L171.357 357.303L187.998 351.787Z" fill="black"/>
<path opacity="0.1" d="M194.881 258.846L199.291 264.735V315.962C199.291 315.962 200.58 329.618 199.291 332.438C198.001 335.258 191.463 340.898 191.463 340.898L185.966 312.696L187.154 282.862L194.881 258.846Z" fill="black"/>
<path d="M199.291 236.997V264.706L194.34 286.276C194.34 286.276 192.753 338.327 194.138 344.657C195.523 350.986 189.383 356.929 189.383 356.929C189.383 356.929 185.817 357.327 185.817 360.093C185.817 362.86 179.874 370.78 179.874 370.78L180.07 386.217C180.07 386.217 182.65 415.114 178.685 420.653C174.721 426.193 180.07 426.988 180.07 426.988C175.119 443.215 151.346 439.456 149.201 437.675C147.055 435.894 149.201 400.864 149.201 400.864C149.201 400.864 154.514 347.429 158.674 345.054C162.835 342.679 158.876 339.711 160.261 336.148C161.646 332.586 158.876 322.891 158.876 322.891C158.876 322.891 157.688 311.408 154.716 305.869C151.744 300.329 152.137 285.088 152.137 285.088C152.137 285.088 143.816 274.003 141.344 269.651C138.871 265.299 137.278 254.019 137.873 245.505C138.277 239.751 141.302 231.374 143.222 226.553C144.143 224.243 144.809 222.747 144.809 222.747L145.373 222.896L177.835 231.386L199.291 236.997Z" fill="#444053"/>
<path opacity="0.1" d="M202.31 104.596C199.243 105.475 196.313 108.491 193.763 112.154H193.098C189.361 112.157 185.689 111.174 182.454 109.305C179.219 107.436 176.535 104.746 174.674 101.509C173.896 100.167 173.27 98.7436 172.807 97.2638C174.644 92.6031 176.005 88.5539 176.005 88.5539C176.005 88.5539 211.671 101.925 202.31 104.596Z" fill="black"/>
<path d="M214.345 89.7532C214.35 93.0018 213.609 96.2083 212.179 99.1256C210.748 102.043 208.666 104.593 206.093 106.58C203.52 108.567 200.525 109.938 197.339 110.586C194.152 111.234 190.859 111.144 187.714 110.32C184.568 109.497 181.653 107.964 179.194 105.838C176.735 103.712 174.797 101.051 173.53 98.0587C172.263 95.0669 171.7 91.8244 171.885 88.581C172.07 85.3377 172.997 82.1799 174.596 79.3511C175.24 78.2017 175.993 77.1163 176.843 76.1094C178.244 74.4414 179.892 72.996 181.728 71.8227C184.83 69.8534 188.391 68.7217 192.062 68.5381C195.733 68.3545 199.388 69.1254 202.672 70.7753C205.955 72.4252 208.754 74.8978 210.795 77.9515C212.836 81.0052 214.049 84.5356 214.315 88.1976C214.327 88.7201 214.345 89.2366 214.345 89.7532Z" fill="#EFB7B9"/>
<path opacity="0.1" d="M196.492 140.564L196.42 141.217L186.536 125.78C185.502 128.221 184.926 129.853 184.926 129.853C184.926 129.853 161.45 112.196 165.164 111.008C166.412 110.611 168.053 107.939 169.675 104.573L169.877 104.145C171.601 109.275 181.615 119.528 185.782 123.637C186.263 124.112 186.661 124.504 186.97 124.789L187.606 125.383L187.939 125.715C189.455 127.276 195.85 134.164 196.492 140.564Z" fill="black"/>
<path d="M203.879 192.942L202.797 227.717L202.607 233.909C202.607 233.909 189.793 232.722 177.835 231.416C168.207 230.365 159.132 229.231 157.735 228.566C155.952 227.729 152.131 227.081 149.117 226.672C146.788 226.357 144.957 226.191 144.957 226.191C144.957 226.191 144.273 226.393 143.222 226.583C140.927 226.998 136.898 227.337 134.55 225.3C131.549 222.694 139.436 213.224 141.403 210.95L141.837 210.457L141.094 203.6L139.162 185.818C139.162 185.818 137.974 175.576 136.191 170.084C135.714 168.523 135.37 166.924 135.162 165.305C134.5 160.289 134.839 155.191 136.161 150.307C136.726 148.232 137.084 146.106 137.231 143.96C137.528 138.468 154.318 117.243 158.478 115.313C160.349 114.441 161.855 112.941 162.733 111.074C163.023 110.487 163.241 109.867 163.381 109.227C165.164 101.509 169.675 104.573 169.675 104.573C170.763 110.611 187.6 126.594 187.6 126.594L187.933 126.926C189.603 128.636 197.044 136.663 196.515 143.515C196.409 146.065 196.791 148.612 197.638 151.02C201.063 161.792 203.032 172.974 203.493 184.268L203.879 192.942Z" fill="#DCE6F2"/>
<path opacity="0.1" d="M180.023 151.649C180.023 151.649 175.862 161.742 172.742 163.375C169.622 165.008 181.509 166.819 180.023 151.649Z" fill="black"/>
<path opacity="0.1" d="M183.143 170.5C183.143 170.5 173.634 171.687 173.634 173.468C173.634 175.249 183.143 170.5 183.143 170.5Z" fill="black"/>
<path opacity="0.1" d="M193.098 182.077C193.098 182.077 179.28 211.466 175.417 212.357C171.553 213.248 193.098 182.077 193.098 182.077Z" fill="black"/>
<path opacity="0.1" d="M187.339 128.084L175.91 133.047L162.115 112.232C162.405 111.644 162.623 111.024 162.763 110.385C164.546 102.667 169.057 105.73 169.057 105.73C170.145 111.768 186.982 127.751 186.982 127.751L187.339 128.084Z" fill="black"/>
<path d="M187.933 126.897L176.504 131.86L162.71 111.044C163 110.457 163.217 109.837 163.358 109.198C165.141 101.479 169.651 104.543 169.651 104.543C170.739 110.581 187.576 126.564 187.576 126.564L187.933 126.897Z" fill="#DCE6F2"/>
<path opacity="0.1" d="M202.607 233.909C202.607 233.909 189.793 232.722 177.836 231.416L199.291 237.026V243.557C198.352 244.406 197.538 244.846 197.009 244.62C194.536 243.581 174.359 240.316 174.359 240.316C174.359 240.316 162.639 234.378 149.991 227.254C149.684 227.084 149.387 226.897 149.1 226.696C147.625 225.695 146.354 224.424 145.355 222.949C143.02 219.571 141.879 215.231 141.385 210.974C141.108 208.534 141.005 206.078 141.076 203.623C141.137 200.84 141.392 198.065 141.837 195.317C140.614 184.674 140.018 173.969 140.054 163.256C140.203 146.632 155.804 140.695 155.804 140.695C184.48 138.171 175.589 184.482 175.589 184.482C175.589 184.482 173.931 197.544 173.479 198.88C173.027 200.215 171.405 202.442 171.625 205.559C171.845 208.676 177.324 212.405 177.324 212.405C177.324 212.405 182.673 214.91 184.878 218.621C186.483 221.358 196.908 225.069 202.797 227.717L202.607 233.909Z" fill="black"/>
<path opacity="0.1" d="M212.212 76.5725C212.223 77.5505 212.02 78.519 211.617 79.4105C211.313 80.138 210.959 80.8442 210.559 81.5242C209.934 82.775 209.046 83.8766 207.956 84.754C206.583 85.7337 204.848 86.0068 203.202 86.4046C201.555 86.8024 199.844 87.4377 198.905 88.8389C198.396 89.7396 198.055 90.7254 197.9 91.7481C197.743 92.7699 197.334 93.7367 196.711 94.5623C196.387 94.9654 195.938 95.2495 195.435 95.3698C194.931 95.4902 194.402 95.4401 193.93 95.2273C193.433 94.8926 193.056 94.4078 192.854 93.8439C192.177 92.3181 192.004 90.626 191.731 88.9813C191.458 87.3367 191.071 85.6446 190.061 84.3206C189.051 82.9966 187.262 82.1238 185.675 82.6404C185.144 82.8446 184.659 83.154 184.251 83.5498C183.842 83.9457 183.518 84.4199 183.297 84.944C182.858 85.9933 182.557 87.0949 182.4 88.2214C181.663 92.2508 180.793 96.2564 179.791 100.238C179.76 100.402 179.693 100.556 179.595 100.69C179.437 100.847 179.223 100.936 179 100.939C177.669 101.117 176.391 100.185 175.048 100.286C174.91 100.295 174.772 100.317 174.638 100.351C172.466 96.5808 171.507 92.2346 171.891 87.9016C172.275 83.5685 173.983 79.4581 176.784 76.1272L176.891 76.0975C177.784 75.7807 178.596 75.2697 179.268 74.6014C180.126 73.7437 180.92 72.825 181.645 71.8524L182.121 71.2587C183.487 69.6146 185.043 68.1379 186.756 66.8592C187.224 66.4764 187.761 66.1862 188.337 66.0042C188.831 65.9082 189.337 65.8922 189.835 65.9567C191.888 66.2029 193.957 66.2803 196.022 66.1883C197.461 65.9623 198.911 65.8157 200.367 65.7489C204.129 65.8558 207.338 68.5098 209.715 71.419C210.993 72.9093 212.134 74.6251 212.212 76.5725Z" fill="black"/>
<path d="M171.821 79.9152C170.995 81.2689 169.503 82.1891 168.944 83.6735C168.124 85.8287 169.509 88.5123 168.237 90.436C167.815 91.0831 167.12 91.564 166.882 92.3062C166.478 93.5589 167.583 94.8948 167.298 96.1832C167.013 97.4716 165.313 98.5581 165.765 99.8168C166.032 100.366 166.5 100.791 167.072 101.004C167.973 101.52 169.009 101.75 170.044 101.663C171.666 101.396 172.873 99.8049 174.519 99.6862C175.856 99.5912 177.134 100.517 178.465 100.345C178.689 100.337 178.901 100.246 179.06 100.09C179.161 99.9576 179.228 99.8027 179.256 99.6387C180.254 95.6607 181.126 91.6551 181.871 87.6217C182.023 86.4949 182.322 85.393 182.762 84.3444C182.985 83.8213 183.31 83.348 183.718 82.9524C184.126 82.5567 184.61 82.2468 185.14 82.0407C186.727 81.5301 188.51 82.3969 189.526 83.7209C190.542 85.045 190.929 86.7371 191.202 88.3817C191.475 90.0263 191.648 91.7184 192.319 93.2443C192.523 93.8102 192.902 94.2967 193.401 94.6336C194.292 95.1501 195.493 94.7405 196.176 93.9686C196.803 93.1427 197.211 92.173 197.365 91.1484C197.52 90.1276 197.861 89.1437 198.37 88.2451C199.309 86.8439 201.026 86.2087 202.667 85.8109C204.307 85.4131 206.036 85.134 207.421 84.1544C208.51 83.2779 209.397 82.1786 210.024 80.9305C210.904 79.3986 211.724 77.7362 211.653 75.9729C211.576 74.0492 210.434 72.3333 209.216 70.8372C206.839 67.9279 203.623 65.274 199.861 65.173C198.406 65.2338 196.955 65.3805 195.517 65.6124C193.451 65.7052 191.382 65.6257 189.33 65.3749C188.831 65.3153 188.326 65.3333 187.832 65.4283C187.255 65.6044 186.719 65.8953 186.257 66.2833C184.542 67.5598 182.984 69.0346 181.615 70.6769C180.733 71.8455 179.776 72.9561 178.751 74.0017C178.079 74.6711 177.267 75.184 176.373 75.5038C175.779 75.6701 175.185 75.5513 174.62 75.7354C172.867 76.2875 172.635 78.5734 171.821 79.9152Z" fill="#965D7B"/>
<path opacity="0.1" d="M229.055 96.0585C224.3 96.9313 220.36 93.0899 218.179 90.2875C217.509 89.4365 216.899 88.5397 216.354 87.6039L232.674 90.6794L233.334 90.8041C233.334 90.8041 236.335 94.7286 229.055 96.0585Z" fill="black"/>
<g opacity="0.1">
<path opacity="0.1" d="M167.298 94.4852C167.365 93.7087 167.246 92.9275 166.953 92.2053C166.953 92.2646 166.9 92.324 166.882 92.3834C166.626 93.179 166.971 94.0042 167.191 94.8295C167.238 94.7186 167.274 94.6033 167.298 94.4852Z" fill="black"/>
<path opacity="0.1" d="M168.712 84.7659C168.651 85.5869 168.667 86.4118 168.76 87.2299C168.821 86.4089 168.805 85.584 168.712 84.7659Z" fill="black"/>
<path opacity="0.1" d="M209.989 79.2146C209.363 80.4654 208.475 81.567 207.385 82.4444C206.013 83.4241 204.283 83.6972 202.631 84.095C200.979 84.4928 199.273 85.1281 198.334 86.5293C197.826 87.4304 197.485 88.4161 197.329 89.4385C197.175 90.4628 196.766 91.4323 196.141 92.2587C195.457 93.0305 194.257 93.4461 193.365 92.9237C192.866 92.5868 192.488 92.1003 192.284 91.5344C191.612 90.0085 191.434 88.3223 191.166 86.6718C190.899 85.0212 190.501 83.335 189.49 82.011C188.48 80.687 186.691 79.8143 185.104 80.3308C184.573 80.5359 184.089 80.8456 183.681 81.2414C183.273 81.6371 182.948 82.1109 182.727 82.6344C182.287 83.683 181.987 84.785 181.835 85.9118C181.094 89.9452 180.223 93.9508 179.22 97.9288C179.192 98.0928 179.125 98.2477 179.024 98.38C178.865 98.5364 178.653 98.6275 178.43 98.6353C177.098 98.8075 175.821 97.8813 174.483 97.9763C172.837 98.095 171.631 99.6862 170.008 99.9474C168.973 100.04 167.935 99.8099 167.036 99.2884C166.623 99.1108 166.253 98.8478 165.949 98.5166C165.81 98.7155 165.718 98.9433 165.68 99.183C165.641 99.4226 165.658 99.6677 165.729 99.8999C165.991 100.453 166.461 100.88 167.036 101.087C167.935 101.609 168.973 101.839 170.008 101.746C171.631 101.485 172.837 99.894 174.483 99.7752C175.821 99.6803 177.098 100.606 178.43 100.434C178.653 100.427 178.865 100.335 179.024 100.179C179.125 100.047 179.192 99.8918 179.22 99.7277C180.219 95.7696 181.09 91.7639 181.835 87.7108C181.987 86.5839 182.287 85.482 182.727 84.4334C182.948 83.9098 183.273 83.4361 183.681 83.0403C184.089 82.6446 184.573 82.3349 185.104 82.1298C186.691 81.6132 188.474 82.486 189.49 83.81C190.506 85.134 190.893 86.8261 191.166 88.4707C191.44 90.1154 191.612 91.8075 192.284 93.3333C192.488 93.8993 192.866 94.3858 193.365 94.7227C194.257 95.2392 195.457 94.8295 196.141 94.0577C196.766 93.2312 197.175 92.2618 197.329 91.2375C197.485 90.2151 197.826 89.2294 198.334 88.3283C199.273 86.9271 200.99 86.2977 202.631 85.894C204.271 85.4902 206.001 85.2231 207.385 84.2434C208.475 83.366 209.363 82.2644 209.989 81.0136C210.868 79.4877 211.688 77.8253 211.617 76.0619C211.605 75.8352 211.582 75.6093 211.546 75.3851C211.259 76.744 210.732 78.0408 209.989 79.2146Z" fill="black"/>
</g>
<path opacity="0.1" d="M211.641 79.3927C213.165 82.0998 214.069 85.1112 214.286 88.2095C208.99 85.2409 204.01 81.9813 201.496 80.8473C197.116 78.8702 180.736 79.1671 174.579 79.3511C175.223 78.2017 175.975 77.1163 176.825 76.1094C178.232 74.44 179.886 72.9945 181.728 71.8227C184.169 70.2754 186.9 69.2415 189.754 68.7843C192.608 68.3271 195.526 68.4562 198.328 69.1636C201.131 69.871 203.759 71.1419 206.053 72.8987C208.348 74.6554 210.259 76.8611 211.671 79.3808L211.641 79.3927Z" fill="black"/>
<path opacity="0.1" d="M230.541 93.5411C227.682 94.4199 223.016 92.7218 218.179 90.2875C217.509 89.4365 216.899 88.5397 216.354 87.6039L232.674 90.6794C233.756 91.4156 234.029 92.4665 230.541 93.5411Z" fill="black"/>
<path d="M194.364 58.8083C194.364 58.8083 178.762 57.9177 174.376 66.3783L173.669 73.877L172.48 73.7464L172.243 78.8465C172.243 78.8465 196.087 77.8075 201.513 80.2536C206.94 82.6997 223.801 95.0254 230.558 92.9474C237.316 90.8694 229.964 88.9398 229.964 88.9398C229.964 88.9398 220.663 85.0034 220.663 81.916C220.663 78.8287 218.357 62.5191 194.364 58.8083Z" fill="#444053"/>
<path opacity="0.1" d="M164.273 336.79C164.273 336.79 174.228 346.438 178.537 345.695C178.537 345.695 166.353 344.656 164.273 336.79Z" fill="black"/>
<path opacity="0.1" d="M162.193 341.26C162.193 341.26 163.084 346.224 165.461 345.737C167.839 345.25 162.193 341.26 162.193 341.26Z" fill="black"/>
<path opacity="0.1" d="M177.794 424.215C177.794 424.215 163.661 435.199 166.044 435.496C168.427 435.793 177.794 424.215 177.794 424.215Z" fill="black"/>
<path d="M196.699 206.218L242.463 198.779V242.061L198.982 239.787L196.699 206.218Z" fill="#FF475F"/>
<path opacity="0.05" d="M196.699 206.218L242.463 198.779V242.061L198.982 239.787L196.699 206.218Z" fill="black"/>
<path d="M242.463 198.779L297.343 202.881L294.306 240.547L242.463 242.061V198.779Z" fill="#FF475F"/>
<path opacity="0.1" d="M242.463 198.779L297.343 202.881L294.306 240.547L242.463 242.061V198.779Z" fill="black"/>
<path d="M259.336 185.568L242.463 198.779L297.343 202.881L306.312 189.362L259.336 185.568Z" fill="#FF475F"/>
<path d="M180.129 191.791L221.328 186.779L242.463 198.779L196.699 206.218L180.129 191.791Z" fill="#FF475F"/>
<path d="M252.495 210.018V269.194L231.058 266.997L221.733 266.048L218.892 265.751L209.573 264.795L196.699 263.477V206.218L242.457 209.329L252.495 210.018Z" fill="#FF475F"/>
<path d="M297.343 202.881V260.591L280.161 263.886L271.805 265.489L252.495 269.194V210.018L297.343 202.881Z" fill="#FF475F"/>
<path opacity="0.05" d="M297.343 202.881V260.591L280.161 263.886L271.805 265.489L252.495 269.194V210.018L297.343 202.881Z" fill="black"/>
<path d="M180.129 218.674L196.699 206.218L252.495 210.018L244.281 223.84L180.129 218.674Z" fill="#FF475F"/>
<path opacity="0.1" d="M180.129 218.674L196.699 206.218L252.495 210.018L244.281 223.84L180.129 218.674Z" fill="white"/>
<path d="M297.343 202.881L252.495 210.018L267.092 223.08L315.132 215.029L297.343 202.881Z" fill="#FF475F"/>
<path opacity="0.1" d="M297.343 202.881L252.495 210.018L267.092 223.08L315.132 215.029L297.343 202.881Z" fill="white"/>
<path opacity="0.1" d="M280.161 263.886L271.805 265.489V253.158L279.632 251.187L280.161 263.886Z" fill="white"/>
<path opacity="0.1" d="M231.058 258.84V266.997L221.733 266.047V258.84H231.058Z" fill="white"/>
<path opacity="0.1" d="M218.892 261.411V265.751L209.573 264.795V261.411H218.892Z" fill="white"/>
<path opacity="0.1" d="M246.885 254.511C240.496 262.675 219.397 257.035 219.397 257.035L203.719 240.695L201.591 238.481L205.751 230.763C205.751 230.763 206.94 231.154 208.925 231.843C219.433 235.512 252.263 247.642 246.885 254.511Z" fill="black"/>
<path d="M246.29 253.324C239.901 261.488 218.803 255.847 218.803 255.847L203.124 239.508L200.997 237.293L205.157 229.575C205.157 229.575 206.346 229.967 208.331 230.656C218.838 234.325 251.669 246.455 246.29 253.324Z" fill="#EFB7B9"/>
<path opacity="0.1" d="M208.307 230.656C207.439 233.149 205.234 236.842 203.1 239.508L200.973 237.293L205.133 229.575C205.133 229.575 206.328 229.967 208.307 230.656Z" fill="black"/>
<path d="M156.398 138.32C156.398 138.32 140.797 144.257 140.648 160.881C140.613 171.594 141.208 182.299 142.431 192.942C142.431 192.942 137.974 217.73 150.603 224.855C163.233 231.98 174.971 237.917 174.971 237.917C174.971 237.917 195.148 241.182 197.627 242.221C200.105 243.26 208.717 229.902 207.38 227.675C206.042 225.449 187.672 219.957 185.49 216.246C183.309 212.535 177.936 210.036 177.936 210.036C177.936 210.036 172.457 206.301 172.237 203.184C172.017 200.067 173.634 197.841 174.091 196.505C174.549 195.169 176.207 182.107 176.207 182.107C176.207 182.107 185.074 135.767 156.398 138.32Z" fill="#DCE6F2"/>
<path opacity="0.1" d="M163.53 193.358C163.53 193.358 142.431 195.733 144.066 203.154C144.066 203.154 152.083 195.668 163.53 193.358Z" fill="black"/>
<path opacity="0.1" d="M163.53 196.327C163.53 196.327 151.554 205.084 153.753 205.678C155.952 206.271 163.53 196.327 163.53 196.327Z" fill="black"/>
<path opacity="0.1" d="M168.879 199.889C168.879 199.889 165.461 206.028 167.393 205.707C169.325 205.387 168.879 199.889 168.879 199.889Z" fill="black"/>
<path d="M388.555 66.7286C388.555 66.7286 365.971 65.3689 368.609 81.1976C368.609 81.1976 368.081 83.9941 370.618 85.2646C370.618 85.2646 370.66 84.0772 372.936 84.4869C373.747 84.6231 374.571 84.663 375.391 84.6056C376.502 84.5316 377.558 84.0957 378.398 83.3647C378.398 83.3647 384.751 80.7464 387.224 70.3681C387.224 70.3681 389.054 68.1001 389.007 67.5182L385.191 69.151C385.191 69.151 386.493 71.8999 385.465 74.1857C385.465 74.1857 385.346 69.2519 384.609 69.3647C384.46 69.3647 382.63 70.3206 382.63 70.3206C382.63 70.3206 384.87 75.106 383.177 78.5912C383.177 78.5912 383.818 72.6896 381.928 70.665L379.242 72.2324C379.242 72.2324 381.863 77.1781 380.086 81.2154C380.086 81.2154 380.544 75.0229 378.677 72.6124L376.241 74.5064C376.241 74.5064 378.707 79.3868 377.203 82.7354C377.203 82.7354 377.007 75.5276 375.712 74.9813C375.712 74.9813 373.584 76.8575 373.263 77.6293C373.263 77.6293 374.945 81.1917 373.899 83.0382C373.899 83.0382 373.257 78.2349 372.71 78.2112C372.71 78.2112 370.589 81.3936 370.369 83.5547C370.471 81.5399 371.1 79.5871 372.193 77.8906C370.97 78.1217 369.842 78.7059 368.948 79.5708C368.948 79.5708 369.275 77.3206 372.716 77.1247C372.716 77.1247 374.499 74.7082 374.939 74.5598C374.939 74.5598 371.516 74.2748 369.442 75.1951C369.442 75.1951 371.266 73.0755 375.569 74.0076L377.946 72.0483C377.946 72.0483 373.441 71.4546 371.528 72.1137C371.528 72.1137 373.727 70.2375 378.594 71.6031L381.209 70.0416C381.209 70.0416 377.37 69.2103 375.082 69.5131C375.082 69.5131 377.495 68.2129 381.976 69.62L383.848 68.7829C383.848 68.7829 381.031 68.2307 380.211 68.1416C379.391 68.0526 379.343 67.827 379.343 67.827C381.125 67.5307 382.955 67.7362 384.627 68.4207C384.627 68.4207 388.638 66.9779 388.555 66.7286Z" fill="#FF475F"/>
<path opacity="0.1" d="M457.177 145.896C457.177 145.896 434.592 144.536 437.231 160.365C437.231 160.365 436.702 163.161 439.24 164.432C439.24 164.432 439.281 163.244 441.563 163.654C442.374 163.79 443.198 163.83 444.018 163.773C445.116 163.693 446.159 163.26 446.99 162.538C446.99 162.538 453.349 159.913 455.821 149.535C455.821 149.535 457.646 147.273 457.575 146.691L453.759 148.318C453.759 148.318 455.061 151.067 454.038 153.353C454.038 153.353 453.914 148.419 453.183 148.532C453.034 148.532 451.198 149.488 451.198 149.488C451.198 149.488 453.444 154.279 451.75 157.758C451.75 157.758 452.392 151.857 450.496 149.832L447.84 151.382C447.84 151.382 450.461 156.327 448.684 160.365C448.684 160.365 449.141 154.172 447.275 151.762L444.844 153.662C444.844 153.662 447.305 158.536 445.807 161.885C445.807 161.885 445.611 154.677 444.315 154.131C444.315 154.131 442.188 156.007 441.861 156.779C441.861 156.779 443.549 160.341 442.503 162.187C442.503 162.187 441.861 157.384 441.314 157.36C441.314 157.36 439.192 160.543 438.972 162.704C439.078 160.689 439.709 158.737 440.803 157.04C439.578 157.272 438.448 157.856 437.552 158.72C437.552 158.72 437.885 156.47 441.326 156.274C441.326 156.274 443.079 153.858 443.549 153.709C443.549 153.709 440.125 153.424 438.051 154.344C438.051 154.344 439.876 152.225 444.173 153.187L446.55 151.227C446.55 151.227 442.039 150.634 440.131 151.293C440.131 151.293 442.33 149.416 447.198 150.782L449.813 149.221C449.813 149.221 445.967 148.395 443.679 148.692C443.679 148.692 446.098 147.392 450.579 148.799L452.452 147.962C452.452 147.962 449.634 147.41 448.808 147.321C447.982 147.232 447.941 147.006 447.941 147.006C449.725 146.709 451.556 146.915 453.23 147.6C453.23 147.6 457.248 146.145 457.177 145.896Z" fill="#FF475F"/>
<path opacity="0.1" d="M319.975 131.842C319.975 131.842 325.176 109.821 309.105 109.744C309.105 109.744 306.436 108.746 304.754 111.026C304.754 111.026 305.902 111.27 305.123 113.443C304.854 114.211 304.674 115.008 304.588 115.818C304.473 116.921 304.721 118.032 305.295 118.982C305.295 118.982 306.799 125.691 316.588 129.895C316.588 129.895 318.513 132.08 319.096 132.103L318.145 128.072C318.145 128.072 315.209 128.885 313.129 127.478C313.129 127.478 318.02 128.197 318.026 127.478C318.026 127.33 317.432 125.365 317.432 125.365C317.432 125.365 312.326 126.754 309.176 124.492C309.176 124.492 314.888 126.131 317.212 124.617L316.142 121.696C316.142 121.696 310.793 123.435 307.132 120.995C307.132 120.995 313.164 122.503 315.863 121.078L314.406 118.359C314.406 118.359 309.176 119.95 306.127 117.902C306.127 117.902 313.259 118.935 314.032 117.759C314.032 117.759 312.546 115.343 311.839 114.891C311.839 114.891 308.059 115.948 306.395 114.601C306.395 114.601 311.239 114.785 311.352 114.274C311.352 114.274 308.576 111.644 306.46 111.05C308.432 111.499 310.253 112.452 311.744 113.817C311.722 112.572 311.338 111.361 310.638 110.332C310.638 110.332 312.802 111.044 312.421 114.488C312.421 114.488 314.502 116.625 314.567 117.112C314.567 117.112 315.429 113.793 314.876 111.59C314.876 111.59 316.659 113.751 314.977 117.818L316.498 120.52C316.498 120.52 317.877 116.186 317.527 114.191C317.527 114.191 319.007 116.673 316.825 121.232L317.925 124.076C317.925 124.076 319.393 120.431 319.488 118.139C319.488 118.139 320.362 120.74 318.204 124.913L318.715 126.897C318.715 126.897 319.738 124.219 319.963 123.423C320.189 122.628 320.421 122.622 320.421 122.622C320.412 124.428 319.9 126.196 318.941 127.728C318.941 127.728 319.72 131.872 319.975 131.842Z" fill="#FF475F"/>
<path opacity="0.1" d="M270.515 139.347C270.515 139.347 252.376 125.792 245.892 140.475C245.892 140.475 243.913 142.523 245.333 144.975C245.333 144.975 246.011 144.02 247.711 145.605C248.313 146.164 248.979 146.651 249.696 147.053C250.667 147.593 251.787 147.802 252.887 147.647C252.887 147.647 259.639 148.947 267.413 141.639C267.413 141.639 270.188 140.748 270.45 140.226L266.355 139.507C266.355 139.507 265.927 142.517 263.817 143.865C263.817 143.865 266.426 139.673 265.749 139.371C265.612 139.305 263.568 139.074 263.568 139.074C263.568 139.074 262.807 144.31 259.479 146.288C259.479 146.288 263.264 141.71 262.795 138.979L259.687 138.813C259.687 138.813 259.158 144.388 255.449 146.786C255.449 146.786 259.235 141.864 259.015 138.824L255.936 139.074C255.936 139.074 255.312 144.495 252.216 146.466C252.216 146.466 256.014 140.338 255.235 139.175C255.235 139.175 252.424 139.573 251.728 140.036C251.728 140.036 251.188 143.919 249.286 144.904C249.286 144.904 251.396 140.54 250.968 140.238C250.968 140.238 247.443 141.728 246.059 143.426C247.256 141.8 248.859 140.515 250.706 139.697C249.557 139.22 248.293 139.088 247.069 139.317C247.069 139.317 248.579 137.619 251.562 139.347C251.562 139.347 254.355 138.296 254.831 138.427C254.831 138.427 252.127 136.307 249.886 135.939C249.886 135.939 252.584 135.167 255.645 138.314L258.73 137.999C258.73 137.999 255.3 135.031 253.333 134.532C253.333 134.532 256.204 134.17 259.514 137.981L262.557 138.118C262.557 138.118 259.805 135.316 257.731 134.306C257.731 134.306 260.459 134.544 263.431 138.183L265.457 138.51C265.457 138.51 263.407 136.503 262.765 135.98C262.123 135.458 262.212 135.238 262.212 135.238C263.866 135.97 265.283 137.145 266.307 138.634C266.307 138.634 270.438 139.59 270.515 139.347Z" fill="#FF475F"/>
<path opacity="0.1" d="M330.905 13.4122C330.905 13.4122 312.766 -0.148438 306.282 14.5403C306.282 14.5403 304.303 16.5886 305.723 19.0407C305.723 19.0407 306.401 18.0848 308.101 19.6701C308.706 20.2267 309.374 20.7109 310.092 21.1128C311.062 21.6532 312.183 21.8617 313.283 21.7065C313.283 21.7065 320.035 23.0068 327.809 15.6921C327.809 15.6921 330.584 14.8075 330.84 14.279L326.745 13.5725C326.745 13.5725 326.323 16.5827 324.207 17.9304C324.207 17.9304 326.822 13.7388 326.145 13.436C326.008 13.3706 323.963 13.1391 323.963 13.1391C323.963 13.1391 323.179 18.3876 319.851 20.3528C319.851 20.3528 323.631 15.7752 323.167 13.0441L320.059 12.8779C320.059 12.8779 319.524 18.4529 315.821 20.8456C315.821 20.8456 319.607 15.9237 319.387 12.8838L316.314 13.1332C316.314 13.1332 315.684 18.5598 312.588 20.531C312.588 20.531 316.392 14.4037 315.613 13.24C315.613 13.24 312.802 13.6378 312.106 14.1009C312.106 14.1009 311.566 17.9839 309.664 18.9695C309.664 18.9695 311.774 14.6056 311.346 14.2969C311.346 14.2969 307.821 15.793 306.437 17.4911C307.633 15.8635 309.235 14.5779 311.084 13.7625C309.933 13.2816 308.666 13.1495 307.441 13.3825C307.441 13.3825 308.957 11.6845 311.94 13.4122C311.94 13.4122 314.733 12.3554 315.209 12.4919C315.209 12.4919 312.505 10.3723 310.264 9.9983C310.264 9.9983 312.956 9.2324 316.017 12.3732L319.102 12.0585C319.102 12.0585 315.678 9.0899 313.705 8.58523C313.705 8.58523 316.576 8.229 319.892 12.0407L322.935 12.1713C322.935 12.1713 320.183 9.36895 318.103 8.36556C318.103 8.36556 320.837 8.60305 323.809 12.2426L325.83 12.5691C325.83 12.5691 323.773 10.5861 323.131 10.0755C322.489 9.56488 322.579 9.33927 322.579 9.33927C324.232 10.0699 325.65 11.2458 326.674 12.7354C326.674 12.7354 330.804 13.6378 330.905 13.4122Z" fill="#FF475F"/>
<path opacity="0.1" d="M400.216 30.5886C400.216 30.5886 392.965 9.14928 379.29 17.5742C379.29 17.5742 376.496 18.1679 376.276 20.9644C376.276 20.9644 377.376 20.5606 377.863 22.8168C378.044 23.6193 378.317 24.3983 378.677 25.1383C379.169 26.1341 379.969 26.9443 380.96 27.4478C380.96 27.4478 385.786 32.3461 396.341 30.7252C396.341 30.7252 399.128 31.5683 399.639 31.2774L396.668 28.3622C396.668 28.3622 394.611 30.6005 392.103 30.5114C392.103 30.5114 396.638 28.5403 396.264 27.905C396.186 27.7803 394.635 26.4326 394.635 26.4326C394.635 26.4326 391.034 30.3096 387.17 30.0543C387.17 30.0543 392.882 28.4275 394.047 25.8982L391.586 24.0042C391.586 24.0042 387.985 28.2909 383.569 28.1603C383.569 28.1603 389.512 26.2544 391.016 23.6183L388.341 22.0806C388.341 22.0806 384.775 26.1951 381.079 26.0645C381.079 26.0645 387.687 23.173 387.705 21.7718C387.705 21.7718 385.168 20.5072 384.33 20.4953C384.33 20.4953 381.679 23.3868 379.575 23.1255C379.575 23.1255 383.783 20.7209 383.604 20.2282C383.604 20.2282 379.86 19.4623 377.75 20.0797C379.659 19.416 381.708 19.2625 383.694 19.6344C383.015 18.5889 382.047 17.7636 380.906 17.2595C380.906 17.2595 383.117 16.7193 384.597 19.8304C384.597 19.8304 387.497 20.5488 387.806 20.9228C387.806 20.9228 386.784 17.6514 385.15 16.0721C385.15 16.0721 387.806 16.9686 388.531 21.3087L391.253 22.793C391.253 22.793 390.13 18.3936 388.775 16.8558C388.775 16.8558 391.349 18.1857 391.907 23.2027L394.344 25.0373C394.344 25.0373 393.666 21.1662 392.525 19.1595C392.525 19.1595 394.641 20.905 395.022 25.5895L396.501 27.0025C396.501 27.0025 395.955 24.1883 395.729 23.3927C395.503 22.5971 395.687 22.5437 395.687 22.5437C396.632 24.0839 397.132 25.8552 397.131 27.6616C397.131 27.6616 400.008 30.743 400.216 30.5886Z" fill="#FF475F"/>
<path opacity="0.1" d="M352.895 31.6455C352.895 31.6455 330.37 29.14 332.231 45.1052C332.231 45.1052 331.559 47.8719 334.014 49.2612C334.014 49.2612 334.115 48.0738 336.391 48.6081C337.195 48.7811 338.017 48.8627 338.839 48.8516C339.951 48.8315 341.025 48.4501 341.9 47.7651C341.9 47.7651 348.384 45.4673 351.41 35.2256C351.41 35.2256 353.347 33.0585 353.305 32.4707L349.413 33.9076C349.413 33.9076 350.601 36.7159 349.413 38.9483C349.413 38.9483 349.537 34.0144 348.818 34.0916C348.67 34.0916 346.792 34.9466 346.792 34.9466C346.792 34.9466 348.789 39.8448 346.922 43.2587C346.922 43.2587 347.861 37.3927 346.073 35.2791L343.309 36.704C343.309 36.704 345.686 41.7803 343.695 45.7226C343.695 45.7226 344.468 39.5598 342.726 37.0602L340.201 38.8414C340.201 38.8414 342.411 43.8346 340.741 47.106C340.741 47.106 340.914 39.8982 339.648 39.2867C339.648 39.2867 337.425 41.0679 337.062 41.8041C337.062 41.8041 338.566 45.4258 337.431 47.2366C337.431 47.2366 337.033 42.4097 336.51 42.3622C336.51 42.3622 334.228 45.4317 333.895 47.5988C334.101 45.5897 334.83 43.6695 336.01 42.0297C334.777 42.1999 333.62 42.7261 332.682 43.5437C332.682 43.5437 333.122 41.3172 336.569 41.2935C336.569 41.2935 338.441 38.972 338.946 38.8473C338.946 38.8473 335.541 38.3902 333.419 39.2036C333.419 39.2036 335.351 37.173 339.594 38.3545L342.096 36.5199C342.096 36.5199 337.574 35.6056 335.66 36.1993C335.66 36.1993 337.954 34.4182 342.744 36.0509L345.437 34.62C345.437 34.62 341.639 33.5988 339.339 33.7829C339.339 33.7829 341.817 32.5954 346.221 34.24L348.135 33.4979C348.135 33.4979 345.347 32.8032 344.527 32.6726C343.707 32.542 343.677 32.3164 343.677 32.3164C345.474 32.1104 347.293 32.4064 348.931 33.1713C348.931 33.1713 352.937 31.8948 352.895 31.6455Z" fill="#FF475F"/>
<path opacity="0.1" d="M549.975 206.301C549.975 206.301 527.462 203.796 529.322 219.743C529.322 219.743 528.651 222.51 531.105 223.899C531.105 223.899 531.206 222.712 533.483 223.24C534.286 223.419 535.108 223.501 535.931 223.483C537.043 223.466 538.119 223.085 538.992 222.397C538.992 222.397 545.476 220.099 548.472 209.863C548.472 209.863 550.409 207.69 550.368 207.109L546.475 208.539C546.475 208.539 547.663 211.354 546.475 213.586C546.475 213.586 546.6 208.646 545.88 208.729C545.732 208.729 543.854 209.578 543.854 209.578C543.854 209.578 545.851 214.477 543.985 217.891C543.985 217.891 544.924 212.031 543.135 209.911L540.371 211.342C540.371 211.342 542.748 216.418 540.763 220.36C540.763 220.36 541.53 214.198 539.789 211.692L537.263 213.473C537.263 213.473 539.474 218.466 537.804 221.732C537.804 221.732 537.976 214.524 536.71 213.919C536.71 213.919 534.493 215.7 534.125 216.436C534.125 216.436 535.634 220.058 534.493 221.869C534.493 221.869 534.095 217.042 533.572 216.994C533.572 216.994 531.29 220.064 530.957 222.231C531.163 220.222 531.892 218.301 533.073 216.662C531.838 216.829 530.681 217.355 529.744 218.176C529.744 218.176 530.184 215.943 533.631 215.919C533.631 215.919 535.509 213.598 536.009 213.479C536.009 213.479 532.603 213.016 530.481 213.83C530.481 213.83 532.413 211.805 536.662 212.986L539.159 211.152C539.159 211.152 534.689 210.309 532.746 210.891C532.746 210.891 535.04 209.109 539.83 210.736L542.523 209.311C542.523 209.311 538.725 208.29 536.425 208.474C536.425 208.474 538.903 207.287 543.307 208.931L545.221 208.183C545.221 208.183 542.433 207.489 541.613 207.364C540.793 207.239 540.763 207.008 540.763 207.008C542.56 206.798 544.379 207.092 546.017 207.857C546.017 207.857 550.035 206.556 549.975 206.301Z" fill="#FF475F"/>
<path opacity="0.1" d="M584.393 227.307C584.393 227.307 561.88 224.807 563.74 240.749C563.74 240.749 563.074 243.516 565.523 244.905C565.523 244.905 565.624 243.718 567.9 244.252C568.702 244.426 569.522 244.506 570.343 244.489C571.449 244.467 572.519 244.088 573.392 243.409C573.392 243.409 579.87 241.111 582.865 230.869C582.865 230.869 584.809 228.702 584.761 228.115L580.868 229.545C580.868 229.545 582.057 232.36 580.868 234.592C580.868 234.592 580.993 229.658 580.274 229.735C580.125 229.735 578.247 230.584 578.247 230.584C578.247 230.584 580.244 235.483 578.378 238.897C578.378 238.897 579.317 233.036 577.528 230.923L574.765 232.348C574.765 232.348 577.142 237.424 575.157 241.366C575.157 241.366 575.924 235.204 574.182 232.704L571.656 234.485C571.656 234.485 573.867 239.478 572.203 242.75C572.203 242.75 572.37 235.536 571.104 234.93C571.104 234.93 568.887 236.712 568.518 237.448C568.518 237.448 570.028 241.07 568.887 242.88C568.887 242.88 568.489 238.053 567.966 238.006C567.966 238.006 565.683 241.076 565.356 243.243C565.562 241.234 566.289 239.315 567.466 237.673C566.233 237.844 565.076 238.37 564.138 239.187C564.138 239.187 564.584 236.955 568.031 236.937C568.031 236.937 569.903 234.616 570.408 234.491C570.408 234.491 567.003 234.034 564.881 234.847C564.881 234.847 566.813 232.817 571.062 233.998L573.558 232.164C573.558 232.164 569.089 231.321 567.145 231.902C567.145 231.902 569.439 230.121 574.23 231.754L576.922 230.323C576.922 230.323 573.124 229.302 570.824 229.486C570.824 229.486 573.303 228.299 577.707 229.943L579.62 229.201C579.62 229.201 576.833 228.506 576.019 228.376C575.204 228.245 575.163 228.02 575.163 228.02C576.96 227.814 578.778 228.11 580.417 228.874C580.417 228.874 584.452 227.562 584.393 227.307Z" fill="#FF475F"/>
<path opacity="0.1" d="M507.98 50.3715C507.98 50.3715 489.841 36.8168 483.357 51.4996C483.357 51.4996 481.378 53.5479 482.798 56C482.798 56 483.476 55.0441 485.176 56.6293C485.778 57.1889 486.444 57.6752 487.161 58.078C488.132 58.6176 489.252 58.826 490.352 58.6718C490.352 58.6718 497.104 59.972 504.884 52.6633C504.884 52.6633 507.653 51.7727 507.915 51.2502L503.832 50.514C503.832 50.514 503.404 53.5242 501.294 54.8719C501.294 54.8719 503.903 50.6802 503.225 50.3774C503.089 50.3121 501.05 50.0806 501.05 50.0806C501.05 50.0806 500.283 55.3172 496.955 57.2943C496.955 57.2943 500.741 52.7167 500.272 49.9856L497.163 49.8193C497.163 49.8193 496.634 55.3944 492.926 57.793C492.926 57.793 496.717 52.8711 496.492 49.8312L493.413 50.0806C493.413 50.0806 492.819 55.5013 489.693 57.4724C489.693 57.4724 493.496 51.3452 492.712 50.1815C492.712 50.1815 489.901 50.5793 489.205 51.0424C489.205 51.0424 488.67 54.9254 486.768 55.9109C486.768 55.9109 488.872 51.5471 488.444 51.2443C488.444 51.2443 484.92 52.7345 483.535 54.4326C484.733 52.8067 486.335 51.5215 488.183 50.704C487.033 50.2266 485.769 50.0946 484.546 50.324C484.546 50.324 486.061 48.6259 489.045 50.3537C489.045 50.3537 491.832 49.3028 492.308 49.4334C492.308 49.4334 489.603 47.3138 487.363 46.9457C487.363 46.9457 490.061 46.1739 493.122 49.3206L496.206 49.0059C496.206 49.0059 492.783 46.0373 490.81 45.5386C490.81 45.5386 493.68 45.1764 496.991 48.9881L500.04 49.1247C500.04 49.1247 497.282 46.3223 495.208 45.313C495.208 45.313 497.942 45.5505 500.907 49.19L502.934 49.5165C502.934 49.5165 500.884 47.5097 500.242 46.9873C499.6 46.4648 499.695 46.2926 499.695 46.2926C501.346 47.0252 502.762 48.2008 503.784 49.6887C503.784 49.6887 507.903 50.6149 507.98 50.3715Z" fill="#FF475F"/>
<path opacity="0.1" d="M521.994 148.229C521.994 148.229 515.742 126.481 501.68 134.288C501.68 134.288 498.863 134.722 498.512 137.536C498.512 137.536 499.63 137.186 500.016 139.46C500.159 140.277 500.398 141.074 500.729 141.835C501.17 142.858 501.934 143.708 502.904 144.257C502.904 144.257 507.504 149.363 518.119 148.223C518.119 148.223 520.865 149.185 521.388 148.924L518.577 145.872C518.577 145.872 516.419 148.021 513.923 147.819C513.923 147.819 518.535 146.038 518.179 145.403C518.107 145.272 516.621 143.853 516.621 143.853C516.621 143.853 512.853 147.57 509.002 147.137C509.002 147.137 514.785 145.771 516.057 143.313L513.68 141.306C513.68 141.306 509.888 145.427 505.484 145.106C505.484 145.106 511.475 143.461 513.127 140.902L510.524 139.246C510.524 139.246 506.75 143.194 503.089 142.897C503.089 142.897 509.822 140.303 509.906 138.908C509.906 138.908 507.421 137.53 506.583 137.483C506.583 137.483 503.808 140.249 501.698 139.893C501.698 139.893 506.013 137.679 505.858 137.18C505.858 137.18 502.149 136.248 500.016 136.764C501.948 136.192 503.997 136.132 505.959 136.592C505.331 135.518 504.401 134.651 503.285 134.098C503.285 134.098 505.519 133.653 506.851 136.83C506.851 136.83 509.709 137.673 510.007 138.064C510.007 138.064 509.133 134.746 507.57 133.101C507.57 133.101 510.185 134.11 510.714 138.48L513.365 140.089C513.365 140.089 512.437 135.636 511.154 134.069C511.154 134.069 513.662 135.511 514 140.546L516.378 142.488C516.378 142.488 515.873 138.593 514.827 136.55C514.827 136.55 516.865 138.391 517.032 143.081L518.446 144.566C518.446 144.566 518.03 141.728 517.852 140.92C517.673 140.113 517.852 140 517.852 140C518.731 141.579 519.153 143.372 519.07 145.177C519.07 145.177 521.78 148.371 521.994 148.229Z" fill="#FF475F"/>
<path opacity="0.1" d="M382.671 197.235C382.671 197.235 370.529 178.129 359.255 189.564C359.255 189.564 356.675 190.751 357.127 193.572C357.127 193.572 358.108 192.919 359.118 194.997C359.481 195.733 359.932 196.423 360.461 197.051C361.17 197.908 362.141 198.509 363.225 198.761C363.225 198.761 369.079 202.371 378.945 198.286C378.945 198.286 381.851 198.44 382.279 198.042L378.713 195.905C378.713 195.905 377.245 198.577 374.791 199.081C374.791 199.081 378.725 196.113 378.196 195.567C378.095 195.46 376.265 194.522 376.265 194.522C376.265 194.522 373.691 199.141 369.875 199.812C369.875 199.812 375.04 196.873 375.575 194.154L372.728 192.901C372.728 192.901 370.25 197.918 365.935 198.838C365.935 198.838 371.225 195.578 372.086 192.657L369.115 191.802C369.115 191.802 366.607 196.653 363.011 197.395C363.011 197.395 368.74 193.014 368.425 191.648C368.425 191.648 365.656 191.025 364.859 191.215C364.859 191.215 362.975 194.652 360.848 194.902C360.848 194.902 364.366 191.565 364.075 191.126C364.075 191.126 360.253 191.274 358.351 192.372C360.048 191.274 362.003 190.64 364.021 190.532C363.118 189.677 361.983 189.106 360.758 188.887C360.758 188.887 362.773 187.836 364.919 190.508C364.919 190.508 367.89 190.508 368.3 190.805C368.3 190.805 366.517 187.836 364.562 186.726C364.562 186.726 367.355 186.964 369.091 191.007L372.092 191.802C372.092 191.802 369.947 187.795 368.277 186.649C368.277 186.649 371.088 187.326 372.829 192.07L375.635 193.257C375.635 193.257 374.054 189.665 372.467 187.985C372.467 187.985 374.939 189.172 376.419 193.631L378.202 194.658C378.202 194.658 377.013 192.052 376.591 191.333C376.169 190.615 376.336 190.449 376.336 190.449C377.622 191.718 378.529 193.319 378.957 195.074C378.957 195.074 382.511 197.437 382.671 197.235Z" fill="#FF475F"/>
<path d="M462.472 99.6149C462.472 99.6149 450.924 80.1467 439.293 91.2256C439.293 91.2256 436.678 92.3537 437.047 95.168C437.047 95.168 438.039 94.5386 438.99 96.6463C439.33 97.3956 439.759 98.1012 440.268 98.7481C440.95 99.6237 441.903 100.25 442.978 100.529C442.978 100.529 448.713 104.317 458.704 100.529C458.704 100.529 461.604 100.773 462.044 100.387L458.555 98.1425C458.555 98.1425 457.01 100.761 454.538 101.194C454.538 101.194 458.561 98.3266 458.056 97.7863C457.949 97.6735 456.154 96.676 456.154 96.676C456.154 96.676 453.438 101.218 449.617 101.77C449.617 101.77 454.87 98.9915 455.483 96.296L452.677 94.978C452.677 94.978 450.045 99.9237 445.7 100.713C445.7 100.713 451.091 97.62 452.042 94.7286L449.106 93.7786C449.106 93.7786 446.443 98.5284 442.829 99.1815C442.829 99.1815 448.689 94.978 448.416 93.6065C448.416 93.6065 445.67 92.894 444.85 93.0602C444.85 93.0602 442.859 96.4385 440.725 96.6226C440.725 96.6226 444.345 93.4046 444.072 92.9534C444.072 92.9534 440.244 92.983 438.312 94.0221C440.043 92.9794 442.016 92.4064 444.036 92.3596C443.157 91.477 442.04 90.8703 440.821 90.6141C440.821 90.6141 442.871 89.6226 444.981 92.3596C444.981 92.3596 447.952 92.4606 448.351 92.7634C448.351 92.7634 446.669 89.7948 444.743 88.5717C444.743 88.5717 447.525 88.8923 449.135 92.989L452.107 93.8796C452.107 93.8796 450.092 89.8066 448.452 88.6073C448.452 88.6073 451.245 89.3732 452.838 94.1646L455.602 95.4529C455.602 95.4529 454.134 91.8134 452.63 90.1094C452.63 90.1094 455.061 91.3741 456.41 95.8745L458.151 96.9551C458.151 96.9551 457.034 94.313 456.642 93.5827C456.249 92.8524 456.416 92.6921 456.416 92.6921C457.662 94.0002 458.52 95.6281 458.894 97.3944C458.894 97.3944 462.3 99.8109 462.472 99.6149Z" fill="#FF475F"/>
<path d="M389.411 140.552C389.411 140.552 390.005 117.931 374.273 121.12C374.273 121.12 371.456 120.686 370.268 123.263C370.268 123.263 371.456 123.263 371.123 125.549C371.015 126.364 371.003 127.189 371.088 128.007C371.195 129.116 371.665 130.159 372.425 130.975C372.425 130.975 375.26 137.233 385.726 139.359C385.726 139.359 388.05 141.11 388.632 141.015L386.849 137.263C386.849 137.263 384.145 138.652 381.821 137.708C381.821 137.708 386.754 137.417 386.618 136.693C386.618 136.545 385.595 134.74 385.595 134.74C385.595 134.74 380.876 137.144 377.34 135.565C377.34 135.565 383.283 136.01 385.227 134.057L383.569 131.427C383.569 131.427 378.707 134.205 374.606 132.567C374.606 132.567 380.817 132.816 383.171 130.874L381.191 128.5C381.191 128.5 376.395 131.124 372.996 129.735C372.996 129.735 380.199 129.301 380.722 127.989C380.722 127.989 378.772 125.929 377.988 125.614C377.988 125.614 374.505 127.395 372.603 126.433C372.603 126.433 377.358 125.638 377.388 125.109C377.388 125.109 374.137 123.097 371.944 122.948C373.966 122.984 375.943 123.549 377.679 124.587C377.408 123.373 376.788 122.265 375.896 121.399C375.896 121.399 378.16 121.654 378.469 125.08C378.469 125.08 380.948 126.754 381.108 127.217C381.108 127.217 381.281 123.791 380.288 121.749C380.288 121.749 382.475 123.5 381.655 127.823L383.694 130.162C383.694 130.162 384.157 125.638 383.414 123.756C383.414 123.756 385.364 125.887 384.163 130.791L385.809 133.35C385.809 133.35 386.511 129.485 386.136 127.211C386.136 127.211 387.515 129.586 386.255 134.104L387.158 135.945C387.158 135.945 387.616 133.113 387.676 132.288C387.735 131.462 387.961 131.409 387.961 131.409C388.319 133.18 388.177 135.016 387.551 136.711C387.551 136.711 389.149 140.629 389.411 140.552Z" fill="#FF475F"/>
<path opacity="0.1" d="M415.419 427.986C424.258 427.986 431.424 426.776 431.424 425.284C431.424 423.792 424.258 422.583 415.419 422.583C406.579 422.583 399.414 423.792 399.414 425.284C399.414 426.776 406.579 427.986 415.419 427.986Z" fill="#FF475F"/>
<path opacity="0.1" d="M357.073 469C365.913 469 373.079 467.791 373.079 466.299C373.079 464.807 365.913 463.597 357.073 463.597C348.234 463.597 341.068 464.807 341.068 466.299C341.068 467.791 348.234 469 357.073 469Z" fill="#FF475F"/>
<path opacity="0.1" d="M55.3559 447.988C64.1954 447.988 71.3612 446.779 71.3612 445.287C71.3612 443.795 64.1954 442.585 55.3559 442.585C46.5164 442.585 39.3506 443.795 39.3506 445.287C39.3506 446.779 46.5164 447.988 55.3559 447.988Z" fill="#FF475F"/>
<path opacity="0.1" d="M478.471 466.299C487.311 466.299 494.477 465.089 494.477 463.597C494.477 462.105 487.311 460.896 478.471 460.896C469.632 460.896 462.466 462.105 462.466 463.597C462.466 465.089 469.632 466.299 478.471 466.299Z" fill="#FF475F"/>
<path d="M495.136 433.359C508.335 433.359 519.034 431.551 519.034 429.321C519.034 427.092 508.335 425.284 495.136 425.284C481.938 425.284 471.238 427.092 471.238 429.321C471.238 431.551 481.938 433.359 495.136 433.359Z" fill="#FF475F"/>
<path d="M505.044 422.713C506.135 421.828 506.929 420.63 507.32 419.282C507.617 417.916 507.035 416.283 505.733 415.785C504.271 415.226 502.708 416.236 501.52 417.257C500.331 418.278 498.982 419.448 497.431 419.234C498.227 418.511 498.823 417.595 499.16 416.575C499.497 415.554 499.565 414.464 499.356 413.41C499.289 412.973 499.104 412.562 498.821 412.222C498.007 411.355 496.539 411.729 495.564 412.412C492.474 414.585 491.612 418.777 491.594 422.553C491.285 421.193 491.547 419.774 491.541 418.397C491.535 417.019 491.148 415.428 489.966 414.704C489.24 414.3 488.419 414.095 487.588 414.11C486.198 414.063 484.647 414.199 483.702 415.215C482.513 416.473 482.828 418.593 483.85 419.964C484.872 421.336 486.435 422.22 487.874 423.182C489.025 423.869 490.008 424.804 490.75 425.919C490.835 426.075 490.905 426.238 490.958 426.406H499.671C501.622 425.425 503.429 424.182 505.044 422.713Z" fill="#FF475F"/>
<path d="M44.6104 432.729C44.6104 432.729 53.7333 432.45 56.497 430.491C59.2606 428.532 70.541 426.198 71.2245 429.339C71.908 432.48 84.9416 444.948 74.6359 445.031C64.3302 445.115 50.6904 443.428 47.9445 441.754C45.1987 440.08 44.6104 432.729 44.6104 432.729Z" fill="#A8A8A8"/>
<path opacity="0.2" d="M74.8083 443.939C64.5026 444.022 50.8627 442.336 48.1169 440.662C46.0249 439.391 45.1928 434.825 44.9135 432.718H44.6104C44.6104 432.718 45.2047 440.074 47.9327 441.742C50.6606 443.41 64.3183 445.103 74.624 445.019C77.5957 445.019 78.6239 443.939 78.5704 442.371C78.1543 443.327 77.0192 443.921 74.8083 443.939Z" fill="black"/>
</g>
<defs>
<linearGradient id="paint0_linear" x1="132.53" y1="257.332" x2="318.038" y2="257.332" gradientUnits="userSpaceOnUse">
<stop stop-color="#808080" stop-opacity="0.25"/>
<stop offset="0.54" stop-color="#808080" stop-opacity="0.12"/>
<stop offset="1" stop-color="#808080" stop-opacity="0.1"/>
</linearGradient>
<clipPath id="clip0">
<rect width="600" height="469" fill="white"/>
</clipPath>
</defs>
</svg>
